<svg id="Capa_1" data-name="Capa 1" xmlns="http://www.w3.org/2000/svg" viewBox="0 0 428.396 147.107">
  <defs>
    <style>
      .cls-1 {
        fill: #ff7a55;
      }

      .cls-2 {
        fill: #d8654a;
        stroke: #b7553e;
        stroke-miterlimit: 10;
        stroke-width: 0.5px;
      }
    </style>
  </defs>
  <title>f5809b2e-d95e-4f2a-b86c-c27c1c47a8dd</title>
  <g>
    <g>
      <path class="cls-1" d="M39.906,79.486c-.808,2.753,6.926,4.846,17.653,6.707C67.737,84.51,73.9,82.315,74.486,79.4c-3.284-2.9-30.8-3.168-34.579.085Z"/>
      <path class="cls-1" d="M101.581,29.692c-2.186-5.134-2.571-9.626-1.612-13.619,1.675-2.164,4.426-3.344,7.7-4.055a19.587,19.587,0,0,0-6.038-.32c2.343-4.43,6.408-8.228,11.408-11.7C102.226,2.258,92.83,6.649,87.916,17.9,68.8,6,43.18,4.9,24.711,17,19.7,6.415,10.512,2.188,0,0,4.993,3.461,9.057,7.259,11.393,11.681a19.964,19.964,0,0,0-5.9.336C8.641,12.7,11.322,13.83,13,15.854c1.069,4.2.645,8.931-1.793,14.408C-2.9,48.937-2.791,78.613,13.24,96.147a50.735,50.735,0,0,0,15.387,11.377c7.847,3.579,15.858,6.438,24.46,7.454,21.472,2.547,6.762,32.13,6.762,32.13,38.572-12.775,48.455-52.336,50.46-57.032.024-.023.031-.039.024-.055C118.563,64.212,113.319,43.694,101.581,29.692ZM58.1,99.374C19.365,96.2,5.826,79.207,11.77,49.609c9.584-30.223,31.929-27.23,45.648-3.383,13.209-26.254,32.9-22.284,44.068-3.618C114.145,70.917,96.643,97.889,58.1,99.374Z"/>
      <path class="cls-1" d="M33.849,70.823a16.038,16.038,0,1,1,14.4-14.3A16.1,16.1,0,0,1,33.849,70.823Zm.007-28.466A12.622,12.622,0,1,0,44.792,53.222,12.674,12.674,0,0,0,33.855,42.356Z"/>
      <path class="cls-1" d="M33.26,54.869l6.171,3.4a7.854,7.854,0,0,0,.5-5.52,7.973,7.973,0,1,0-9.5,9.837,8.051,8.051,0,0,0,4.848-.393Z"/>
      <path class="cls-1" d="M83.79,38.915A16.037,16.037,0,1,0,98.2,53.232,16.1,16.1,0,0,0,83.79,38.915ZM80.484,67.381A12.623,12.623,0,1,1,94.738,53.229,12.7,12.7,0,0,1,80.484,67.381Z"/>
      <path class="cls-1" d="M89.111,58.29l-6.172-3.407,2.013,7.329a7.914,7.914,0,1,1,4.756-9.022A7.872,7.872,0,0,1,89.111,58.29Z"/>
    </g>
    <g>
      <path class="cls-2" d="M188.874,34.358q-.539.814-1.027,1.566t-.96,1.566a16.723,16.723,0,0,1,5.49,3.723,17.973,17.973,0,0,1,4.766,9.4,25.267,25.267,0,0,1,.388,4.048,15.763,15.763,0,0,1-.657,4.577,16.958,16.958,0,0,1-1.752,3.967,14.226,14.226,0,0,1-2.543,3.112,11.093,11.093,0,0,1-3.032,2.014,21.539,21.539,0,0,1,6.467,15.3,18.016,18.016,0,0,1-1.162,6.469,17.492,17.492,0,0,1-3.149,5.33,15.027,15.027,0,0,1-4.7,3.621,12.846,12.846,0,0,1-5.777,1.342,11.514,11.514,0,0,1-4.9-1.038,13.673,13.673,0,0,1-4.008-2.827,17.957,17.957,0,0,1-3.065-4.231,24.617,24.617,0,0,1-2.038-5.208l1.684-.61a15.128,15.128,0,0,0,4.109,7.547,9.777,9.777,0,0,0,6.905,2.665,10.665,10.665,0,0,0,4.766-1.119,12.977,12.977,0,0,0,3.992-3.051,14.775,14.775,0,0,0,2.729-4.557,15.666,15.666,0,0,0,1.01-5.675,16.1,16.1,0,0,0-.472-3.946,20.017,20.017,0,0,0-1.246-3.54,21.426,21.426,0,0,0-1.735-3.071,22.188,22.188,0,0,0-1.97-2.5q-.91.2-1.819.326a13.378,13.378,0,0,1-1.785.122,14.157,14.157,0,0,1-2.476-.224,10.114,10.114,0,0,1-2.291-.671,4.8,4.8,0,0,1-1.684-1.18,2.583,2.583,0,0,1-.657-1.79,3.682,3.682,0,0,1,.1-.712,2.47,2.47,0,0,1,.421-.915,2.768,2.768,0,0,1,.96-.793,3.716,3.716,0,0,1,1.751-.346,8.116,8.116,0,0,1,2.105.285,11.86,11.86,0,0,1,2.038.752,16.876,16.876,0,0,1,1.886,1.058,18.077,18.077,0,0,1,1.651,1.2,12.316,12.316,0,0,0,2.442-1.77,12.809,12.809,0,0,0,2.24-2.746,15.659,15.659,0,0,0,1.651-3.743,17.651,17.651,0,0,0-1.482-13.1,13.727,13.727,0,0,0-6.3-5.655q-2.021,3.417-3.772,6.794T178.7,52.869q-1.515,3.377-2.846,6.753t-2.543,6.835a142.929,142.929,0,0,1-5.457,13.486,41.711,41.711,0,0,1-5.675,9.133,19.458,19.458,0,0,1-6.568,5.188,19.141,19.141,0,0,1-8.135,1.647,12.494,12.494,0,0,1-6.1-1.4,11.943,11.943,0,0,1-4.21-3.844,17.42,17.42,0,0,1-2.442-5.675,28.929,28.929,0,0,1-.792-6.9,34.718,34.718,0,0,1,1.078-8.4,43.176,43.176,0,0,1,3.2-8.646,49.373,49.373,0,0,1,3.335-5.675,54.361,54.361,0,0,1,4.547-5.818A50.871,50.871,0,0,1,151.8,44.1a40.7,40.7,0,0,1,6.8-4.516,39.174,39.174,0,0,1,7.815-3.092,32.535,32.535,0,0,1,8.774-1.16,35.614,35.614,0,0,1,5.17.346,26.3,26.3,0,0,1,4.329,1q.774-.935,1.566-1.872t1.634-1.872ZM175.468,51.242q1.785-3.579,3.722-6.733t4.16-6.082a20.277,20.277,0,0,0-2.711-.57,21.488,21.488,0,0,0-3.015-.2A30.775,30.775,0,0,0,167.6,39.342a39.807,39.807,0,0,0-9.4,4.7,46.474,46.474,0,0,0-8.269,7.16,49.99,49.99,0,0,0-6.585,9.011,46.931,46.931,0,0,0-4.345,10.272,39.327,39.327,0,0,0-1.566,10.985,18.84,18.84,0,0,0,.623,5.024,11,11,0,0,0,1.869,3.865,8.427,8.427,0,0,0,3.083,2.481,9.717,9.717,0,0,0,4.227.875,13.3,13.3,0,0,0,7.006-1.811,18.841,18.841,0,0,0,5.339-4.943,39.047,39.047,0,0,0,4.227-7.3q1.886-4.17,3.688-8.889t3.688-9.724A105.05,105.05,0,0,1,175.468,51.242ZM184.9,67.149a6.872,6.872,0,0,0-1.2-.834,9.505,9.505,0,0,0-1.432-.651,12.264,12.264,0,0,0-1.482-.427,6.135,6.135,0,0,0-1.28-.163,1.785,1.785,0,0,0-1.2.264.738.738,0,0,0-.252.468.794.794,0,0,0,.455.651,5.149,5.149,0,0,0,1.146.508,9.239,9.239,0,0,0,1.532.346,11.474,11.474,0,0,0,1.651.122q.37,0,.842-.041A7.03,7.03,0,0,0,184.9,67.149Z"/>
      <path class="cls-2" d="M217.607,83.992q-1.55,2.2-3.065,4.048a27.163,27.163,0,0,1-3.015,3.173,14.437,14.437,0,0,1-2.981,2.075,6.564,6.564,0,0,1-3,.752,4.813,4.813,0,0,1-2.307-.549,5.458,5.458,0,0,1-1.785-1.546,7.185,7.185,0,0,1-1.162-2.441,11.99,11.99,0,0,1-.4-3.234,17.63,17.63,0,0,1,1.027-5.777,35.976,35.976,0,0,1,2.594-5.777,46.176,46.176,0,0,1,3.469-5.33q1.9-2.522,3.621-4.475l1.448,1.22q-1.212,2.157-2.711,4.882t-2.83,5.635a49.517,49.517,0,0,0-2.24,5.818,18.149,18.149,0,0,0-.91,5.391,7,7,0,0,0,.522,2.848,1.981,1.981,0,0,0,2,1.18,5.9,5.9,0,0,0,3.554-1.546,27.321,27.321,0,0,0,3.975-4.027,64.568,64.568,0,0,0,4.076-5.594q2.038-3.112,3.857-6.286t3.318-6.062q1.5-2.889,2.442-4.923l2.459,1.465q-1.954,4.638-3.756,8.645t-3.2,7.2q-1.4,3.195-2.223,5.554a12.123,12.123,0,0,0-.825,3.743,1.922,1.922,0,0,0,.2.936.679.679,0,0,0,.64.366,4.118,4.118,0,0,0,2.746-1.3,23.551,23.551,0,0,0,3.031-3.377,53.069,53.069,0,0,0,3-4.455q1.465-2.42,2.644-4.536l1.213,1.139q-.2.407-.842,1.668t-1.583,2.889q-.943,1.627-2.156,3.417a29.4,29.4,0,0,1-2.56,3.275,14.853,14.853,0,0,1-2.8,2.441,5.186,5.186,0,0,1-2.863.956,3.289,3.289,0,0,1-1.566-.366,3.553,3.553,0,0,1-1.162-.977,4.727,4.727,0,0,1-.741-1.424,5.381,5.381,0,0,1-.27-1.708,10.513,10.513,0,0,1,.287-2.319A20.322,20.322,0,0,1,217.607,83.992Z"/>
      <path class="cls-2" d="M236.4,76.954a57.014,57.014,0,0,1,3.705-5.391,34.769,34.769,0,0,1,3.874-4.251,18.5,18.5,0,0,1,3.857-2.787,7.938,7.938,0,0,1,3.688-1,4.038,4.038,0,0,1,2,.447,3.49,3.49,0,0,1,1.247,1.16,4.765,4.765,0,0,1,.64,1.566,8.07,8.07,0,0,1,.185,1.708,11.026,11.026,0,0,1-.505,3.153,36.766,36.766,0,0,1-1.263,3.519q-.757,1.831-1.633,3.743t-1.634,3.743a34.964,34.964,0,0,0-1.263,3.56,11.565,11.565,0,0,0-.505,3.234,4.205,4.205,0,0,0,.354,1.729,1.271,1.271,0,0,0,1.263.793,3.628,3.628,0,0,0,2.392-1.322,22.265,22.265,0,0,0,2.678-3.376q1.364-2.054,2.728-4.577t2.543-4.922l1.212,1.139q-.371.61-1.011,1.973t-1.5,3.051q-.859,1.688-1.92,3.479a27.9,27.9,0,0,1-2.257,3.275,13.306,13.306,0,0,1-2.51,2.441,4.5,4.5,0,0,1-2.661.956,6.5,6.5,0,0,1-1.752-.244,3.84,3.84,0,0,1-1.583-.9,4.657,4.657,0,0,1-1.145-1.77,7.817,7.817,0,0,1-.438-2.828,15.453,15.453,0,0,1,.556-4.048,34.417,34.417,0,0,1,1.381-4.068q.825-2.014,1.8-3.906t1.8-3.56q.825-1.668,1.381-3.031a6.323,6.323,0,0,0,.556-2.3q0-1.668-1.347-1.668a7.079,7.079,0,0,0-4.059,1.525,25.818,25.818,0,0,0-4.294,3.967,57.746,57.746,0,0,0-4.244,5.472q-2.089,3.031-3.907,6.042L229.7,94.326l-3.065-1.465q4.278-11.268,8.236-22.274T243,48.841q.639-1.668,1.5-3.621t1.853-3.906q.993-1.953,2.139-3.743a26.358,26.358,0,0,1,2.358-3.173,12.045,12.045,0,0,1,2.51-2.217,4.788,4.788,0,0,1,2.61-.834,2.831,2.831,0,0,1,2.307,1,4.32,4.32,0,0,1,.825,2.828,13.373,13.373,0,0,1-.842,4.333,37.388,37.388,0,0,1-2.257,5.106q-1.415,2.685-3.284,5.533T248.781,55.8q-2.072,2.807-4.194,5.431t-4.076,4.862ZM256.141,33.5a3.7,3.7,0,0,0-2.779,1.4,19.207,19.207,0,0,0-2.746,4.618q-1.482,3.215-3.4,8.381T242.532,60.6a98.8,98.8,0,0,0,6.484-8.442q2.779-4.089,4.631-7.465a45.314,45.314,0,0,0,2.779-5.879,12.114,12.114,0,0,0,.926-3.723,1.825,1.825,0,0,0-.337-1.159A1.063,1.063,0,0,0,256.141,33.5Z"/>
      <path class="cls-2" d="M279.753,81.795a.913.913,0,0,0,.271.041h.3a6.168,6.168,0,0,0,1.717-.224,4.421,4.421,0,0,0,1.432-.712,6.494,6.494,0,0,0,1.264-1.281,12.326,12.326,0,0,0,1.18-1.933l1.211,1.139a11.154,11.154,0,0,1-3.334,3.865,6.637,6.637,0,0,1-3.637,1.1,4.3,4.3,0,0,1-1.247-.163,27.18,27.18,0,0,1-3.1,4.984,19.484,19.484,0,0,1-3.368,3.356,12.561,12.561,0,0,1-3.4,1.892,9.526,9.526,0,0,1-3.132.59,6.06,6.06,0,0,1-2.746-.63,6.251,6.251,0,0,1-2.172-1.811,8.824,8.824,0,0,1-1.415-2.807,12.32,12.32,0,0,1-.505-3.662,16.769,16.769,0,0,1,.539-4.149,26.086,26.086,0,0,1,1.465-4.19,29.806,29.806,0,0,1,2.173-4.007,31.643,31.643,0,0,1,2.695-3.6,29.9,29.9,0,0,1,3-3.01,18.14,18.14,0,0,1,3.1-2.2l1.078,1.709A27.494,27.494,0,0,0,269.5,70a36.007,36.007,0,0,0-3.334,5.167A34.475,34.475,0,0,0,263.7,81a19.428,19.428,0,0,0-.96,5.879,7.075,7.075,0,0,0,.943,3.967,3.214,3.214,0,0,0,2.863,1.4,6.436,6.436,0,0,0,2.931-.732,12.762,12.762,0,0,0,2.83-1.993,20.744,20.744,0,0,0,2.661-2.99,41.169,41.169,0,0,0,2.425-3.682A6.531,6.531,0,0,1,275.677,81a12.157,12.157,0,0,1-1.246-2.644,18.086,18.086,0,0,1-.758-3.194,23.885,23.885,0,0,1-.253-3.5,14.787,14.787,0,0,1,.371-3.377,10.976,10.976,0,0,1,1.027-2.787,6.092,6.092,0,0,1,1.533-1.892,3.029,3.029,0,0,1,1.92-.691,2.633,2.633,0,0,1,1.684.59,4.608,4.608,0,0,1,1.246,1.627,9.732,9.732,0,0,1,.775,2.461,16.41,16.41,0,0,1,.27,3.051,23.869,23.869,0,0,1-.168,2.685q-.17,1.464-.49,2.949t-.773,2.929A15.074,15.074,0,0,1,279.753,81.795Zm-4.581-10.13a21.293,21.293,0,0,0,.168,2.563,17.463,17.463,0,0,0,.539,2.685,13.218,13.218,0,0,0,.943,2.42,5.144,5.144,0,0,0,1.415,1.77,24.461,24.461,0,0,0,1.027-2.909q.42-1.485.708-2.868a25.483,25.483,0,0,0,.4-2.583q.117-1.2.117-2.1a13.851,13.851,0,0,0-.168-2.238,9.452,9.452,0,0,0-.455-1.77,3.379,3.379,0,0,0-.708-1.18,1.281,1.281,0,0,0-.926-.427,1.771,1.771,0,0,0-1.247.549,4.541,4.541,0,0,0-.977,1.465,9.413,9.413,0,0,0-.623,2.115A13.877,13.877,0,0,0,275.172,71.665Z"/>
      <path class="cls-2" d="M339.744,34.358a48.472,48.472,0,0,0-3.133,4.516,26.732,26.732,0,0,1,5.642,5.065,30.8,30.8,0,0,1,4.177,6.489,34.686,34.686,0,0,1,2.594,7.587,38.742,38.742,0,0,1,.893,8.36,46.78,46.78,0,0,1-.623,7.608,36.336,36.336,0,0,1-1.953,7.221,30.25,30.25,0,0,1-3.386,6.387A22.425,22.425,0,0,1,332.5,96.136a25.694,25.694,0,0,1-8.253,1.241,31.919,31.919,0,0,1-7.748-.915q-3.672-.916-7.04-2.014a20.569,20.569,0,0,1-5.676,3.3,19.337,19.337,0,0,1-6.956,1.18,9.492,9.492,0,0,1-2.728-.346,5.187,5.187,0,0,1-1.87-.956,3.908,3.908,0,0,1-1.077-1.4,4,4,0,0,1-.354-1.648,4.561,4.561,0,0,1,.422-1.932A4.436,4.436,0,0,1,292.5,91.03a6.489,6.489,0,0,1,2.189-1.1,10.7,10.7,0,0,1,3.116-.407,19.551,19.551,0,0,1,4.9.63q2.442.631,4.969,1.444a32.244,32.244,0,0,0,4.5-6.448q2.038-3.762,3.907-8.218t3.671-9.336q1.8-4.882,3.841-9.8t4.412-9.642a67.134,67.134,0,0,1,5.339-8.869,24.43,24.43,0,0,0-5.474-2.014,26.867,26.867,0,0,0-6.315-.712,30.543,30.543,0,0,0-7.917,1.017,32.475,32.475,0,0,0-13.137,7,28.869,28.869,0,0,0-4.665,5.187,24.126,24.126,0,0,0-3,5.818,18.2,18.2,0,0,0-1.061,6.042,10.687,10.687,0,0,0,.64,3.7,10.124,10.124,0,0,0,1.752,3.071,8.344,8.344,0,0,0,2.627,2.1,7.156,7.156,0,0,0,3.3.773,10.018,10.018,0,0,0,2.745-.386,18.13,18.13,0,0,0,2.61-.956,20.533,20.533,0,0,0,2.324-1.241q1.078-.672,1.887-1.261t1.263-.977c.3-.257.466-.4.489-.427l1.077,1.709q-1.583,1.261-3.284,2.42a30.831,30.831,0,0,1-3.52,2.075,21.065,21.065,0,0,1-3.772,1.465,14.621,14.621,0,0,1-3.975.549,9.1,9.1,0,0,1-3.84-.834,9.594,9.594,0,0,1-3.184-2.36,11.626,11.626,0,0,1-2.173-3.641,13.006,13.006,0,0,1-.808-4.679,19.028,19.028,0,0,1,1.095-6.143,28.881,28.881,0,0,1,3.132-6.367,33.786,33.786,0,0,1,5-6,35.335,35.335,0,0,1,14.872-8.482,34.322,34.322,0,0,1,9.516-1.282,27.783,27.783,0,0,1,6.922.834,26.238,26.238,0,0,1,6.08,2.38,43.818,43.818,0,0,1,4.143-4.638ZM296.7,96.807a13.278,13.278,0,0,0,5-.916,14.782,14.782,0,0,0,4.227-2.624q-2.222-.691-4.244-1.159a17.193,17.193,0,0,0-3.873-.468,7.372,7.372,0,0,0-3.925.834,2.391,2.391,0,0,0-1.3,2.014,2,2,0,0,0,.927,1.627A5.5,5.5,0,0,0,296.7,96.807Zm49.549-33.2a35.452,35.452,0,0,0-.708-7.2,28.825,28.825,0,0,0-2.071-6.347,24.623,24.623,0,0,0-3.352-5.33,21.052,21.052,0,0,0-4.548-4.109,83.63,83.63,0,0,0-4.479,9.032q-2.021,4.76-3.807,9.642t-3.5,9.683q-1.718,4.8-3.587,9.174a73.849,73.849,0,0,1-4.06,8.137,32.565,32.565,0,0,1-4.917,6.53q2.694.894,5.389,1.566a22.9,22.9,0,0,0,5.559.671A21.46,21.46,0,0,0,332.6,92.6a22.238,22.238,0,0,0,7.545-6.712,30.661,30.661,0,0,0,4.564-9.988A47.454,47.454,0,0,0,346.245,63.609Z"/>
      <path class="cls-2" d="M380.064,65.807q-.438,1.058-1.229,2.766t-1.7,3.763q-.908,2.055-1.835,4.292T373.613,81q-.757,2.136-1.246,4.028a13.147,13.147,0,0,0-.488,3.194,2.362,2.362,0,0,0,.421,1.688,1.552,1.552,0,0,0,1.095.387,3.587,3.587,0,0,0,2-.692,11.173,11.173,0,0,0,2.021-1.79,23.046,23.046,0,0,0,1.937-2.481q.942-1.383,1.769-2.787t1.5-2.686q.672-1.281,1.145-2.176l1.213,1.139q-.573,1.3-1.348,2.807t-1.7,3.031a34.966,34.966,0,0,1-2,2.95,18.915,18.915,0,0,1-2.273,2.522,10.8,10.8,0,0,1-2.51,1.749,5.992,5.992,0,0,1-2.694.651,3.268,3.268,0,0,1-2.964-1.464,6.878,6.878,0,0,1-.943-3.784c0-.108,0-.346.017-.712a5.366,5.366,0,0,1,.084-.875,33.364,33.364,0,0,1-3.217,4.231,17.541,17.541,0,0,1-2.964,2.645,9.853,9.853,0,0,1-2.762,1.363,9.135,9.135,0,0,1-2.543.387,5.745,5.745,0,0,1-4.4-1.994,7.039,7.039,0,0,1-1.347-2.4,10.159,10.159,0,0,1-.488-3.3,19.523,19.523,0,0,1,.858-5.309,25.347,25.347,0,0,1,3.049-6.448,28.907,28.907,0,0,1,3.856-5,23.166,23.166,0,0,1,3.941-3.275,14.938,14.938,0,0,1,3.688-1.77,11,11,0,0,1,3.133-.529,7.49,7.49,0,0,1,4.683,1.241,5.505,5.505,0,0,1,1.92,3.8q.672-1.016,1.414-2.034t1.517-2.075ZM369.723,81.266q.438-.855,1.078-2.177t1.348-2.726q.708-1.4,1.381-2.706t1.179-2.2q0-.366-.084-1.18a5.445,5.445,0,0,0-.455-1.648,3.433,3.433,0,0,0-3.436-2.054,8.289,8.289,0,0,0-2.341.386,11.515,11.515,0,0,0-2.763,1.3,18.405,18.405,0,0,0-3.015,2.421,25.237,25.237,0,0,0-3.1,3.743,31.093,31.093,0,0,0-3.587,6.774,17.777,17.777,0,0,0-1.264,6.123,6.226,6.226,0,0,0,.876,3.58,2.855,2.855,0,0,0,2.492,1.261,6.492,6.492,0,0,0,3.47-1,13.691,13.691,0,0,0,3.031-2.583,30.953,30.953,0,0,0,2.7-3.519Q368.509,83.138,369.723,81.266Z"/>
      <path class="cls-2" d="M390.607,59.3q.337-.691,1.2-2.4t2.021-3.784q1.162-2.075,2.526-4.17a29.184,29.184,0,0,1,2.678-3.56l1.516,1.1q-1.449,2.889-2.964,6.123t-3,6.692h10.98l-.673,2.116H393.672q-1.516,3.661-2.847,7.282t-2.341,6.917a63.6,63.6,0,0,0-1.583,6.163,25.949,25.949,0,0,0-.573,4.984,5.752,5.752,0,0,0,1.011,3.8,3.177,3.177,0,0,0,2.493,1.16,4.742,4.742,0,0,0,2.694-.956,16.023,16.023,0,0,0,2.712-2.42,29.782,29.782,0,0,0,2.526-3.214q1.194-1.748,2.122-3.3t1.532-2.705q.606-1.159.741-1.444l1.246,1.139q-1.179,2.36-2.661,5a36.284,36.284,0,0,1-3.284,4.9,18.93,18.93,0,0,1-3.924,3.743,7.839,7.839,0,0,1-4.581,1.485,5.207,5.207,0,0,1-2.645-.651,5.712,5.712,0,0,1-1.9-1.811,8.559,8.559,0,0,1-1.162-2.746,14.59,14.59,0,0,1-.387-3.458,26.3,26.3,0,0,1,.319-3.458,53.174,53.174,0,0,1,1.095-5.309q.775-3.071,2.072-6.9t3.284-8.218h-5.592l.674-2.116Z"/>
      <path class="cls-2" d="M404.72,83.585q-.067.489-.1.977t-.034.976a10.719,10.719,0,0,0,.354,2.787,7.353,7.353,0,0,0,1.044,2.319A5.03,5.03,0,0,0,407.7,92.21a4.742,4.742,0,0,0,2.341.569,12.811,12.811,0,0,0,8.522-3.621q4.109-3.62,8.185-11.473l1.146,1.22a49.519,49.519,0,0,1-4.514,7.547,29.55,29.55,0,0,1-4.564,4.984,16.175,16.175,0,0,1-4.463,2.767,11.492,11.492,0,0,1-4.177.854,10.607,10.607,0,0,1-3.065-.488,8.421,8.421,0,0,1-2.98-1.627,8.67,8.67,0,0,1-2.257-3.051,11.242,11.242,0,0,1-.893-4.76,20.124,20.124,0,0,1,.858-5.878,25.979,25.979,0,0,1,5.406-9.724,27.037,27.037,0,0,1,3.621-3.437,18.079,18.079,0,0,1,3.588-2.217,7.673,7.673,0,0,1,3.1-.793,5.282,5.282,0,0,1,1.785.326,4.592,4.592,0,0,1,1.634,1.017,5.108,5.108,0,0,1,1.179,1.831,7.335,7.335,0,0,1,.455,2.726,10.019,10.019,0,0,1-.825,4.048,13.833,13.833,0,0,1-2.207,3.5,17.446,17.446,0,0,1-3.2,2.889,22.942,22.942,0,0,1-3.807,2.176,25.411,25.411,0,0,1-4.008,1.424A16.655,16.655,0,0,1,404.72,83.585Zm.27-1.75a15.625,15.625,0,0,0,4.244-1.139,17.553,17.553,0,0,0,3.639-2.095,19.94,19.94,0,0,0,2.947-2.706,18.649,18.649,0,0,0,2.172-2.97,16.118,16.118,0,0,0,1.348-2.888,7.788,7.788,0,0,0,.472-2.482,2.85,2.85,0,0,0-.488-1.749,1.428,1.428,0,0,0-1.162-.651,6.059,6.059,0,0,0-3.335,1.282,18.579,18.579,0,0,0-3.705,3.54,32.6,32.6,0,0,0-3.486,5.309A33.533,33.533,0,0,0,404.989,81.836Z"/>
    </g>
  </g>
</svg>
